#N canvas 87 49 1280 751 10;
#X obj 42 61 tgl 15 0 empty empty empty 17 7 0 10 -258113 -1 -1 0 1
;
#X obj 42 86 select 0 1, f 30;
#X obj 219 295 metro 50;
#X obj 219 321 s metro;
#X obj 219 260 tgl 15 0 empty empty empty 17 7 0 10 -262144 -1 -1 1
1;
#X msg 219 229 0;
#X obj 42 297 tabwrite~ array1;
#X obj 42 214 adc~ 1;
#N canvas 0 22 333 252 hide 0;
#N canvas 0 50 450 300 (subpatch) 0;
#X array array1 441000 float 2;
#X coords 0 1 441000 -1 100 70 1 0 0;
#X restore 48 73 graph;
#N canvas 0 50 450 278 (subpatch) 0;
#X array array2 1e+07 float 2;
#X coords 0 1 1e+07 -1 100 70 1 0 0;
#X restore 161 81 graph;
#X restore 38 172 pd hide arrays;
#X obj 46 526 * 44.1;
#X obj 46 549 nbx 10 14 -1e+37 1e+37 0 0 empty empty empty 0 -8 0 10
-262144 -1 -1 114534 256;
#X obj 46 599 nbx 5 14 -1e+37 1e+37 0 0 empty empty empty 0 -8 0 10
-262144 -1 -1 7158.39 256;
#X obj 46 620 s seg;
#X obj 46 574 / 16;
#X obj 107 146 s record;
#X obj 46 381 r record;
#X obj 91 403 r play;
#X obj 42 120 s play;
#X obj 1000 603 f;
#X obj 1015 514 r seg;
#X obj 956 603 f;
#X obj 911 603 f;
#X obj 865 603 f;
#X obj 821 603 f;
#X obj 777 603 f;
#X obj 733 603 f;
#X obj 971 562 * 2;
#X obj 836 562 * 5;
#X obj 792 562 * 6;
#X obj 748 562 * 7;
#X obj 926 562 * 3;
#X obj 880 562 * 4;
#X obj 1056 460 r l1;
#X obj 1000 460 r l2;
#X obj 955 460 r l3;
#X obj 909 460 r l4;
#X obj 865 460 r l5;
#X obj 821 460 r l6;
#X obj 733 460 r l8;
#X obj 777 460 r l7;
#X obj 710 562 * 8;
#X obj 666 562 * 9;
#X obj 616 562 * 10;
#X obj 567 562 * 11;
#X obj 521 562 * 12;
#X obj 478 562 * 13;
#X obj 434 562 * 14;
#X obj 390 562 * 15;
#X obj 695 603 f;
#X obj 651 603 f;
#X obj 601 603 f;
#X obj 552 603 f;
#X obj 506 603 f;
#X obj 463 603 f;
#X obj 419 603 f;
#X obj 375 603 f;
#X obj 695 460 r l9;
#X obj 651 460 r l10;
#X obj 601 460 r l11;
#X obj 552 460 r l12;
#X obj 375 460 r l16;
#X obj 506 460 r l13;
#X obj 463 460 r l14;
#X obj 419 460 r l15;
#X obj 1069 486 bng 15 250 50 0 empty empty empty 17 7 0 10 -262144
-1 -1;
#X obj 1010 486 bng 15 250 50 0 empty empty empty 17 7 0 10 -262144
-1 -1;
#X obj 965 486 bng 15 250 50 0 empty empty empty 17 7 0 10 -262144
-1 -1;
#X obj 922 486 bng 15 250 50 0 empty empty empty 17 7 0 10 -262144
-1 -1;
#X obj 876 486 bng 15 250 50 0 empty empty empty 17 7 0 10 -262144
-1 -1;
#X obj 831 486 bng 15 250 50 0 empty empty empty 17 7 0 10 -262144
-1 -1;
#X obj 786 486 bng 15 250 50 0 empty empty empty 17 7 0 10 -262144
-1 -1;
#X obj 743 486 bng 15 250 50 0 empty empty empty 17 7 0 10 -262144
-1 -1;
#X obj 706 486 bng 15 250 50 0 empty empty empty 17 7 0 10 -262144
-1 -1;
#X obj 660 486 bng 15 250 50 0 empty empty empty 17 7 0 10 -262144
-1 -1;
#X obj 611 486 bng 15 250 50 0 empty empty empty 17 7 0 10 -262144
-1 -1;
#X obj 562 486 bng 15 250 50 0 empty empty empty 17 7 0 10 -262144
-1 -1;
#X obj 516 486 bng 15 250 50 0 empty empty empty 17 7 0 10 -262144
-1 -1;
#X obj 473 486 bng 15 250 50 0 empty empty empty 17 7 0 10 -262144
-1 -1;
#X obj 429 486 bng 15 250 50 0 empty empty empty 17 7 0 10 -262144
-1 -1;
#X obj 385 486 bng 15 250 50 0 empty empty empty 17 7 0 10 -262144
-1 -1;
#X obj 1056 665 s playinfo16;
#X text 146 548 length of sample in samples;
#X text 91 526 multiply by sample rate;
#X obj 55 240 r record;
#X obj 130 121 s stop_playback;
#X obj 372 123 f;
#X obj 401 123 + 1;
#X obj 567 127 hradio 12 1 0 17 empty empty empty 0 -8 0 16 -262144
-1 -1 16;
#X obj 372 297 spigot, f 7;
#X obj 454 228 tgl 20 0 empty empty empty 17 7 0 10 -262144 -1 -1 1
1;
#X obj 422 297 spigot;
#X obj 411 276 tgl 15 0 empty empty empty 17 7 0 10 -262144 -1 -1 0
1;
#X obj 411 183 loadbang;
#X obj 411 252 bng 15 250 50 0 empty empty empty 17 7 0 10 -262144
-1 -1;
#X obj 567 67 loadbang;
#X obj 372 415 s l1;
#X obj 400 415 s l2;
#X obj 428 415 s l3;
#X obj 456 415 s l4;
#X obj 484 415 s l5;
#X obj 512 415 s l6;
#X obj 540 415 s l7;
#X obj 568 415 s l8;
#X obj 372 93 r metro;
#X obj 372 364 select 1 2 3 4 5 6 7 8 9 10 11 12 13 14 15 16;
#X obj 596 415 s l9;
#X obj 658 415 s l11;
#X obj 692 415 s l12;
#X obj 726 415 s l13;
#X obj 760 415 s l14;
#X obj 796 415 s l15;
#X obj 830 415 s l16;
#X obj 624 415 s l10;
#X obj 516 219 random 16;
#X obj 516 267 + 1;
#X obj 372 267 + 1;
#X obj 422 328 nbx 5 14 -1e+37 1e+37 0 0 empty empty empty 0 -8 0 10
-262144 -1 -1 7 256;
#X obj 422 347 hradio 12 1 0 17 empty empty empty 0 -8 0 16 -262144
-1 -1 7;
#X obj 453 66 r play;
#X obj 855 99 r seg;
#X obj 840 126 + 1;
#X obj 803 148 pack \$1 \$2 \$3;
#X msg 803 176 \$1 \, \$2 \$3;
#X obj 803 232 tabread4~ array1;
#X obj 804 298 *~;
#X obj 978 199 delay 1;
#X obj 924 270 vline~;
#X obj 840 73 r playinfo16;
#X obj 803 203 vline~;
#X obj 924 148 r playinfo16;
#X text 61 60 RECORD AND PLAY;
#X obj 219 205 r stop_playback;
#X obj 171 229 r play;
#X obj 804 331 dac~;
#X text 82 621 length of segment in sample;
#X obj 84 457 / 16;
#X obj 264 268 r seg_t;
#X obj 84 490 s seg_t;
#X obj 454 206 r random;
#X obj 237 61 tgl 15 0 empty empty empty 17 7 0 10 -262130 -1 -1 1
1;
#X obj 237 86 s random;
#X text 256 60 Random;
#X obj 516 195 bang;
#X obj 1017 147 r seg_t;
#X obj 924 174 bang;
#X msg 567 91 16;
#X msg 453 93 0;
#X obj 372 154 mod 15;
#X obj 978 172 bang;
#X obj 961 41 r seg_t;
#X obj 992 220 r record;
#X msg 1056 603 0;
#X msg 114 274 stop;
#X obj 22 141 s stop;
#X obj 114 243 r stop;
#X obj 46 428 realtime;
#X obj 926 125 *;
#X obj 1017 171 - 0.1;
#X msg 978 244 0 10;
#X obj 320 364 s count;
#X msg 924 245 1 10;
#X msg 926 72 1;
#X text 976 71 <<< pitch stuff moved for clarity;
#X obj 1160 311 loadbang;
#X msg 1160 344 \; pd dsp 1;
#X text 1006 312 turn on DSP automatically;
#X connect 0 0 1 0;
#X connect 1 0 17 0;
#X connect 1 0 153 0;
#X connect 1 1 14 0;
#X connect 1 1 84 0;
#X connect 2 0 3 0;
#X connect 4 0 2 0;
#X connect 5 0 4 0;
#X connect 7 0 6 0;
#X connect 9 0 10 0;
#X connect 10 0 13 0;
#X connect 11 0 12 0;
#X connect 13 0 11 0;
#X connect 15 0 155 0;
#X connect 16 0 155 1;
#X connect 18 0 80 0;
#X connect 19 0 18 1;
#X connect 19 0 26 0;
#X connect 19 0 30 0;
#X connect 19 0 31 0;
#X connect 19 0 29 0;
#X connect 19 0 27 0;
#X connect 19 0 28 0;
#X connect 19 0 40 0;
#X connect 19 0 41 0;
#X connect 19 0 42 0;
#X connect 19 0 43 0;
#X connect 19 0 44 0;
#X connect 19 0 45 0;
#X connect 19 0 46 0;
#X connect 19 0 47 0;
#X connect 20 0 80 0;
#X connect 21 0 80 0;
#X connect 22 0 80 0;
#X connect 23 0 80 0;
#X connect 24 0 80 0;
#X connect 25 0 80 0;
#X connect 26 0 20 1;
#X connect 27 0 23 1;
#X connect 28 0 24 1;
#X connect 29 0 25 1;
#X connect 30 0 21 1;
#X connect 31 0 22 1;
#X connect 32 0 151 0;
#X connect 32 0 64 0;
#X connect 33 0 18 0;
#X connect 33 0 65 0;
#X connect 34 0 20 0;
#X connect 34 0 66 0;
#X connect 35 0 21 0;
#X connect 35 0 67 0;
#X connect 36 0 22 0;
#X connect 36 0 68 0;
#X connect 37 0 23 0;
#X connect 37 0 69 0;
#X connect 38 0 25 0;
#X connect 38 0 71 0;
#X connect 39 0 24 0;
#X connect 39 0 70 0;
#X connect 40 0 48 1;
#X connect 41 0 49 1;
#X connect 42 0 50 1;
#X connect 43 0 51 1;
#X connect 44 0 52 1;
#X connect 45 0 53 1;
#X connect 46 0 54 1;
#X connect 47 0 55 1;
#X connect 48 0 80 0;
#X connect 49 0 80 0;
#X connect 50 0 80 0;
#X connect 51 0 80 0;
#X connect 52 0 80 0;
#X connect 53 0 80 0;
#X connect 54 0 80 0;
#X connect 55 0 80 0;
#X connect 56 0 48 0;
#X connect 56 0 72 0;
#X connect 57 0 49 0;
#X connect 57 0 73 0;
#X connect 58 0 50 0;
#X connect 58 0 74 0;
#X connect 59 0 51 0;
#X connect 59 0 75 0;
#X connect 60 0 55 0;
#X connect 60 0 79 0;
#X connect 61 0 52 0;
#X connect 61 0 76 0;
#X connect 62 0 53 0;
#X connect 62 0 77 0;
#X connect 63 0 54 0;
#X connect 63 0 78 0;
#X connect 83 0 6 0;
#X connect 85 0 86 0;
#X connect 85 0 147 0;
#X connect 86 0 85 1;
#X connect 87 0 113 1;
#X connect 87 0 147 1;
#X connect 88 0 104 0;
#X connect 88 0 116 0;
#X connect 89 0 93 0;
#X connect 89 0 90 1;
#X connect 90 0 104 0;
#X connect 90 0 116 0;
#X connect 91 0 88 1;
#X connect 92 0 93 0;
#X connect 93 0 91 0;
#X connect 94 0 145 0;
#X connect 103 0 85 0;
#X connect 104 0 95 0;
#X connect 104 1 96 0;
#X connect 104 2 97 0;
#X connect 104 3 98 0;
#X connect 104 4 99 0;
#X connect 104 5 100 0;
#X connect 104 6 101 0;
#X connect 104 7 102 0;
#X connect 104 8 105 0;
#X connect 104 9 112 0;
#X connect 104 10 106 0;
#X connect 104 11 107 0;
#X connect 104 12 108 0;
#X connect 104 13 109 0;
#X connect 104 14 110 0;
#X connect 104 15 111 0;
#X connect 113 0 114 0;
#X connect 114 0 90 0;
#X connect 115 0 88 0;
#X connect 116 0 117 0;
#X connect 116 0 159 0;
#X connect 118 0 146 0;
#X connect 119 0 120 1;
#X connect 120 0 121 1;
#X connect 121 0 122 0;
#X connect 122 0 128 0;
#X connect 123 0 124 0;
#X connect 124 0 133 0;
#X connect 124 0 133 1;
#X connect 125 0 158 0;
#X connect 126 0 124 1;
#X connect 127 0 120 0;
#X connect 127 0 121 0;
#X connect 128 0 123 0;
#X connect 129 0 144 0;
#X connect 129 0 148 0;
#X connect 131 0 5 0;
#X connect 132 0 4 0;
#X connect 135 0 137 0;
#X connect 136 0 2 1;
#X connect 138 0 89 0;
#X connect 139 0 140 0;
#X connect 142 0 113 0;
#X connect 143 0 157 0;
#X connect 144 0 160 0;
#X connect 145 0 87 0;
#X connect 146 0 85 0;
#X connect 147 0 115 0;
#X connect 147 0 142 0;
#X connect 148 0 125 0;
#X connect 149 0 156 1;
#X connect 149 0 161 0;
#X connect 150 0 158 0;
#X connect 151 0 80 0;
#X connect 152 0 6 0;
#X connect 154 0 152 0;
#X connect 155 0 9 0;
#X connect 155 0 135 0;
#X connect 156 0 121 2;
#X connect 157 0 125 1;
#X connect 158 0 126 0;
#X connect 160 0 126 0;
#X connect 161 0 156 0;
#X connect 163 0 164 0;
