#N canvas 0 23 1280 751 10;
#X obj 98 81 realtime;
#X obj 98 104 / 192;
#X obj 98 16 tgl 30 0 empty empty empty 17 7 0 10 -204786 -1 -1 0 1
;
#X obj 98 60 select 1 0;
#X obj 144 106 nbx 5 14 -1e+37 1e+37 0 0 empty time empty 0 -8 0 10
-262144 -1 -1 2000 256;
#X obj 145 131 nbx 5 14 -1e+37 1e+37 0 0 empty empty empty 0 -8 0 10
-262144 -1 -1 10.5391 256;
#X obj 53 170 i 0;
#X obj 90 170 + 1;
#X obj 53 147 metro 50;
#X obj 653 280 s regularity;
#X obj 651 373 s chance;
#X obj 653 173 hradio 15 1 0 8 empty empty empty 0 -8 0 10 -204786
-1 -1 0;
#X obj 651 325 hradio 15 1 0 8 empty chance_setup empty 0 -8 0 10 -204786
-45076 -1 0;
#X text 651 306 CHANCE OF BASS DRUM PLAYING;
#X obj 505 326 hradio 15 1 0 8 empty empty empty 0 -8 0 10 -262144
-1 -1 0;
#X floatatom 505 303 5 0 0 0 - - -, f 5;
#X obj 504 237 select 1;
#X obj 505 214 mod 48;
#X obj 505 280 random 8;
#X obj 550 257 r chance;
#X obj 538 174 r regularity;
#X obj 17 81 select 0 1;
#X msg 45 103 0;
#X msg 17 103 1;
#X obj 17 128 tgl 15 0 empty empty empty 17 7 0 10 -262144 -1 -1 1
1;
#X obj 53 614 spigot;
#X msg 86 588 1;
#X msg 131 588 0;
#X obj 86 566 select 0;
#X obj 53 680 select 1;
#X obj 53 636 mod 192;
#X obj 193 615 spigot;
#X msg 226 589 1;
#X msg 271 589 0;
#X obj 193 681 select 1;
#X obj 193 637 mod 96;
#X obj 226 567 select 1;
#X obj 333 615 spigot;
#X msg 366 589 1;
#X msg 411 589 0;
#X obj 333 681 select 1;
#X obj 333 637 mod 48;
#X obj 366 567 select 2;
#X obj 483 615 spigot;
#X msg 516 589 1;
#X msg 561 589 0;
#X obj 483 681 select 1;
#X obj 483 637 mod 24;
#X obj 516 567 select 3;
#X obj 632 615 spigot;
#X msg 665 589 1;
#X msg 710 589 0;
#X obj 632 681 select 1;
#X obj 665 567 select 4;
#X obj 632 637 mod 12;
#X obj 775 615 spigot;
#X msg 808 589 1;
#X msg 853 589 0;
#X obj 775 681 select 1;
#X obj 808 567 select 5;
#X obj 938 615 spigot;
#X msg 971 589 1;
#X msg 1016 589 0;
#X obj 938 681 select 1;
#X obj 971 567 select 6;
#X obj 1099 615 spigot;
#X msg 1132 589 1;
#X msg 1177 589 0;
#X obj 1099 681 select 1;
#X obj 1132 567 select 7;
#X obj 485 346 s switch;
#X obj 86 546 r switch;
#X obj 226 547 r switch;
#X obj 366 547 r switch;
#X obj 515 547 r switch;
#X obj 665 547 r switch;
#X obj 808 547 r switch;
#X obj 971 547 r switch;
#X obj 1132 547 r switch;
#X obj 29 703 bng 15 250 50 0 empty empty empty 17 7 0 10 -262144 -1
-1;
#X obj 169 703 bng 15 250 50 0 empty empty empty 17 7 0 10 -262144
-1 -1;
#X obj 310 703 bng 15 250 50 0 empty empty empty 17 7 0 10 -262144
-1 -1;
#X obj 465 703 bng 15 250 50 0 empty empty empty 17 7 0 10 -262144
-1 -1;
#X obj 1077 707 bng 15 250 50 0 empty empty empty 17 7 0 10 -262144
-1 -1;
#X obj 916 703 bng 15 250 50 0 empty empty empty 17 7 0 10 -262144
-1 -1;
#X obj 749 703 bng 15 250 50 0 empty empty empty 17 7 0 10 -262144
-1 -1;
#X obj 609 703 bng 15 250 50 0 empty empty empty 17 7 0 10 -262144
-1 -1;
#X obj 71 219 s metro;
#X obj 53 522 r metro;
#X obj 193 523 r metro;
#X obj 333 523 r metro;
#X obj 483 523 r metro;
#X obj 631 523 r metro;
#X obj 775 523 r metro;
#X obj 938 523 r metro;
#X obj 1099 523 r metro;
#X obj 54 271 select 1;
#X obj 54 247 mod 48;
#X obj 54 457 dac~;
#X msg 54 296 1;
#X text 207 107 time;
#X text 209 132 time/192;
#X msg 141 348 1;
#X obj 141 458 dac~;
#X obj 54 322 spigot;
#X obj 87 297 tgl 15 0 empty empty empty 17 7 0 10 -204786 -1 -1 1
1;
#X text 652 154 REGULARITY OF BASS DRUM CHANGE;
#X obj 141 428 *~ 0.3;
#X obj 53 703 s doit;
#X obj 193 703 s doit;
#X obj 333 703 s doit;
#X obj 483 703 s doit;
#X obj 632 703 s doit;
#X obj 775 703 s doit;
#X obj 938 703 s doit;
#X obj 1099 703 s doit;
#X obj 141 322 r doit;
#X obj 775 637 mod 32;
#X obj 938 637 mod 16;
#X obj 1099 637 mod 8;
#X text 766 505 quarter note triplets;
#X text 935 506 eigth note triplets;
#X text 1096 506 sixteen note triplets;
#X text 52 505 whole;
#X text 189 504 half;
#X text 330 505 quater;
#X text 483 504 eigth;
#X text 630 506 sixteen;
#X text 107 297 metronome(quarter notes);
#X obj 1079 15 loadbang;
#X msg 1079 89 \; pd dsp 1;
#X msg 1158 88 5;
#X text 135 20 <<< click once (X appears) \; click again 1 second or
so later;
#X obj 66 663 nbx 5 14 -1e+37 1e+37 0 0 192 empty empty 0 -8 0 10 -262144
-1 -1 86 256;
#X obj 202 664 nbx 5 14 -1e+37 1e+37 0 0 96 empty empty 0 -8 0 10 -262144
-1 -1 25 256;
#X obj 348 664 nbx 5 14 -1e+37 1e+37 0 0 48 empty empty 0 -8 0 10 -262144
-1 -1 25 256;
#X obj 507 664 nbx 5 14 -1e+37 1e+37 0 0 24 empty empty 0 -8 0 10 -262144
-1 -1 1 256;
#X obj 653 664 nbx 5 14 -1e+37 1e+37 0 0 12 empty empty 0 -8 0 10 -262144
-1 -1 1 256;
#X obj 809 664 nbx 5 14 -1e+37 1e+37 0 0 32 empty empty 0 -8 0 10 -262144
-1 -1 1 256;
#X obj 948 664 nbx 5 14 -1e+37 1e+37 0 0 16 empty empty 0 -8 0 10 -262144
-1 -1 1 256;
#X obj 1114 664 nbx 5 14 -1e+37 1e+37 0 0 8 empty empty 0 -8 0 10 -262144
-1 -1 1 256;
#X obj 29 508 vsl 15 192 0 192 0 0 empty 192 empty 0 -9 0 10 -261234
-1 -1 8555 1;
#X obj 169 605 vsl 15 96 0 96 0 0 empty 96 empty 0 -9 0 10 -261234
-1 -1 2474 1;
#X obj 310 653 vsl 15 48 0 48 0 0 empty 48 empty 0 -9 0 10 -261234
-1 -1 2448 1;
#X obj 465 677 vsl 15 24 0 24 0 0 empty 24 empty 0 -9 0 10 -261234
-1 -1 96 1;
#X obj 609 689 vsl 15 12 0 12 0 0 empty 12 empty 0 -9 0 10 -261234
-1 -1 92 1;
#X obj 749 669 vsl 15 32 0 32 0 0 empty 32 empty 0 -9 0 10 -261234
-1 -1 97 1;
#X obj 916 685 vsl 15 16 0 16 0 0 empty 16 empty 0 -9 0 10 -261234
-1 -1 94 1;
#X obj 1077 695 vsl 15 8 0 8 0 0 empty 8 empty 0 -9 0 10 -261234 -1
-1 87 1;
#X obj 1079 40 delay 1000;
#X obj 1158 114 s chance_setup;
#X obj 94 616 tgl 15 0 empty empty empty 17 7 0 10 -261234 -1 -1 1
1;
#X obj 233 617 tgl 15 0 empty empty empty 17 7 0 10 -261234 -1 -1 0
1;
#X obj 373 617 tgl 15 0 empty empty empty 17 7 0 10 -261234 -1 -1 0
1;
#X obj 523 617 tgl 15 0 empty empty empty 17 7 0 10 -261234 -1 -1 0
1;
#X obj 672 617 tgl 15 0 empty empty empty 17 7 0 10 -261234 -1 -1 0
1;
#X obj 816 617 tgl 15 0 empty empty empty 17 7 0 10 -261234 -1 -1 0
1;
#X obj 979 617 tgl 15 0 empty empty empty 17 7 0 10 -261234 -1 -1 0
1;
#X obj 1139 617 tgl 15 0 empty empty empty 17 7 0 10 -261234 -1 -1
0 1;
#X msg 717 247 48;
#X msg 748 247 24;
#X msg 780 247 12;
#X msg 811 247 32;
#X msg 843 247 16;
#X msg 874 247 8;
#X obj 485 264 bng 15 250 50 0 empty empty empty 17 7 0 10 -262144
-1 -1;
#X obj 651 343 + 1;
#X obj 653 214 select 0 1 2 3 4 5 6 7, f 32;
#X msg 684 247 96;
#X msg 653 247 192;
#N canvas 0 22 571 503 bass_drum 0;
#X obj 243 356 *~;
#X obj 243 315 osc~;
#X msg 186 277 0.5;
#X msg 40 281 \$1 \, \$2 \$3;
#X obj 40 253 pack 1 0 \$1;
#X msg 243 234 \$1 \, \$2 \$3;
#X obj 243 99 nbx 5 14 -1e+37 1e+37 0 0 empty empty empty 0 -8 0 10
-262144 -1 -1 150.976 256;
#X text 308 96 starting pitch;
#X obj 330 144 nbx 5 14 -1e+37 1e+37 0 0 empty empty empty 0 -8 0 10
-262144 -1 -1 94.9655 256;
#X obj 103 222 nbx 5 14 -1e+37 1e+37 0 0 empty empty empty 0 -8 0 10
-262144 -1 -1 210.966 256;
#X text 163 223 release;
#X obj 186 -3 inlet;
#X obj 103 175 loadbang;
#X msg 103 199 100;
#X obj 243 70 * 3;
#X obj 330 35 + 1;
#X obj 243 277 line~;
#X obj 330 70 * 3;
#X obj 40 312 line~;
#X obj 243 207 pack 150 50 100;
#X obj 243 400 outlet~;
#X obj 186 125 bang;
#X obj 243 12 inlet;
#X obj 330 7 inlet;
#X obj 243 36 + 19.67;
#X text 392 144 pitch bend/decay time;
#X obj 134 199 + 116;
#X connect 0 0 20 0;
#X connect 1 0 0 0;
#X connect 2 0 1 1;
#X connect 3 0 18 0;
#X connect 4 0 3 0;
#X connect 5 0 16 0;
#X connect 6 0 19 0;
#X connect 8 0 19 2;
#X connect 8 0 26 0;
#X connect 9 0 4 2;
#X connect 11 0 4 0;
#X connect 11 0 21 0;
#X connect 12 0 13 0;
#X connect 13 0 9 0;
#X connect 14 0 6 0;
#X connect 15 0 17 0;
#X connect 16 0 1 0;
#X connect 17 0 8 0;
#X connect 18 0 0 1;
#X connect 19 0 5 0;
#X connect 21 0 19 0;
#X connect 21 0 2 0;
#X connect 22 0 24 0;
#X connect 23 0 15 0;
#X connect 24 0 14 0;
#X connect 26 0 9 0;
#X restore 141 380 pd bass_drum;
#N canvas 0 50 205 209 hats 1;
#X obj 30 145 *~;
#X obj 86 114 vline~;
#X obj 14 67 noise~;
#X obj 14 90 hip~ 20000;
#X obj 14 113 hip~ 10000;
#X text 123 64 Hat closed;
#X obj 86 13 inlet;
#X obj 30 176 outlet~;
#X obj 85 66 nbx 5 14 0 1 0 0 empty empty empty 0 -8 0 10 -262144 -1
-1 1 256;
#X msg 86 87 \$1 \, 0 40 1;
#X connect 0 0 7 0;
#X connect 1 0 0 1;
#X connect 2 0 3 0;
#X connect 3 0 4 0;
#X connect 4 0 0 0;
#X connect 6 0 8 0;
#X connect 8 0 9 0;
#X connect 9 0 1 0;
#X restore 54 380 pd hats;
#X obj 54 428 *~ 0.2;
#X obj 175 345 vsl 15 30 0 127 0 0 empty empty empty 0 -9 0 10 -262144
-1 -1 700 1;
#X obj 210 345 vsl 15 30 0 127 0 0 empty empty empty 0 -9 0 10 -262144
-1 -1 700 1;
#X connect 0 0 1 0;
#X connect 0 0 4 0;
#X connect 1 0 5 0;
#X connect 1 0 8 1;
#X connect 2 0 3 0;
#X connect 2 0 21 0;
#X connect 3 0 0 0;
#X connect 3 1 0 1;
#X connect 6 0 7 0;
#X connect 6 0 87 0;
#X connect 6 0 17 0;
#X connect 6 0 97 0;
#X connect 7 0 6 1;
#X connect 8 0 6 0;
#X connect 11 0 167 0;
#X connect 12 0 166 0;
#X connect 15 0 14 0;
#X connect 15 0 70 0;
#X connect 16 0 18 0;
#X connect 16 0 165 0;
#X connect 17 0 16 0;
#X connect 18 0 15 0;
#X connect 19 0 18 1;
#X connect 20 0 17 1;
#X connect 21 0 23 0;
#X connect 21 1 22 0;
#X connect 22 0 24 0;
#X connect 23 0 24 0;
#X connect 24 0 8 0;
#X connect 25 0 30 0;
#X connect 26 0 25 1;
#X connect 26 0 151 0;
#X connect 27 0 25 1;
#X connect 27 0 151 0;
#X connect 28 0 26 0;
#X connect 28 1 27 0;
#X connect 29 0 79 0;
#X connect 29 0 108 0;
#X connect 30 0 29 0;
#X connect 30 0 133 0;
#X connect 31 0 35 0;
#X connect 32 0 31 1;
#X connect 32 0 152 0;
#X connect 33 0 31 1;
#X connect 33 0 152 0;
#X connect 34 0 80 0;
#X connect 34 0 109 0;
#X connect 35 0 34 0;
#X connect 35 0 134 0;
#X connect 36 0 32 0;
#X connect 36 1 33 0;
#X connect 37 0 41 0;
#X connect 38 0 37 1;
#X connect 38 0 153 0;
#X connect 39 0 37 1;
#X connect 39 0 153 0;
#X connect 40 0 81 0;
#X connect 40 0 110 0;
#X connect 41 0 40 0;
#X connect 41 0 135 0;
#X connect 42 0 38 0;
#X connect 42 1 39 0;
#X connect 43 0 47 0;
#X connect 44 0 43 1;
#X connect 44 0 154 0;
#X connect 45 0 43 1;
#X connect 45 0 154 0;
#X connect 46 0 82 0;
#X connect 46 0 111 0;
#X connect 47 0 46 0;
#X connect 47 0 136 0;
#X connect 48 0 44 0;
#X connect 48 1 45 0;
#X connect 49 0 54 0;
#X connect 50 0 49 1;
#X connect 50 0 155 0;
#X connect 51 0 49 1;
#X connect 51 0 155 0;
#X connect 52 0 86 0;
#X connect 52 0 112 0;
#X connect 53 0 50 0;
#X connect 53 1 51 0;
#X connect 54 0 52 0;
#X connect 54 0 137 0;
#X connect 55 0 117 0;
#X connect 56 0 55 1;
#X connect 56 0 156 0;
#X connect 57 0 55 1;
#X connect 57 0 156 0;
#X connect 58 0 85 0;
#X connect 58 0 113 0;
#X connect 59 0 56 0;
#X connect 59 1 57 0;
#X connect 60 0 118 0;
#X connect 61 0 60 1;
#X connect 61 0 157 0;
#X connect 62 0 60 1;
#X connect 62 0 157 0;
#X connect 63 0 84 0;
#X connect 63 0 114 0;
#X connect 64 0 61 0;
#X connect 64 1 62 0;
#X connect 65 0 119 0;
#X connect 66 0 65 1;
#X connect 66 0 158 0;
#X connect 67 0 65 1;
#X connect 67 0 158 0;
#X connect 68 0 83 0;
#X connect 68 0 115 0;
#X connect 69 0 66 0;
#X connect 69 1 67 0;
#X connect 71 0 28 0;
#X connect 72 0 36 0;
#X connect 73 0 42 0;
#X connect 74 0 48 0;
#X connect 75 0 53 0;
#X connect 76 0 59 0;
#X connect 77 0 64 0;
#X connect 78 0 69 0;
#X connect 88 0 25 0;
#X connect 89 0 31 0;
#X connect 90 0 37 0;
#X connect 91 0 43 0;
#X connect 92 0 49 0;
#X connect 93 0 55 0;
#X connect 94 0 60 0;
#X connect 95 0 65 0;
#X connect 96 0 99 0;
#X connect 97 0 96 0;
#X connect 99 0 104 0;
#X connect 102 0 170 0;
#X connect 104 0 171 0;
#X connect 105 0 104 1;
#X connect 107 0 103 0;
#X connect 107 0 103 1;
#X connect 116 0 102 0;
#X connect 117 0 58 0;
#X connect 117 0 138 0;
#X connect 118 0 63 0;
#X connect 118 0 139 0;
#X connect 119 0 68 0;
#X connect 119 0 140 0;
#X connect 129 0 149 0;
#X connect 131 0 150 0;
#X connect 149 0 130 0;
#X connect 149 0 131 0;
#X connect 159 0 9 0;
#X connect 160 0 9 0;
#X connect 161 0 9 0;
#X connect 162 0 9 0;
#X connect 163 0 9 0;
#X connect 164 0 9 0;
#X connect 166 0 10 0;
#X connect 167 0 169 0;
#X connect 167 1 168 0;
#X connect 167 2 159 0;
#X connect 167 3 160 0;
#X connect 167 4 161 0;
#X connect 167 5 162 0;
#X connect 167 6 163 0;
#X connect 167 7 164 0;
#X connect 168 0 9 0;
#X connect 169 0 9 0;
#X connect 170 0 107 0;
#X connect 171 0 172 0;
#X connect 172 0 98 0;
#X connect 172 0 98 1;
#X connect 173 0 170 1;
#X connect 174 0 170 2;
